# xmcd
#
# Track frame offsets:
#	150
#	42265
#	70300
#	86499
#	102938
#	128501
#	138754
#
# Disc length: 1972 seconds
# Revision: 1
# Processed by: cddbd v1.5.2PL0 Copyright (c) Steve Scherf et al.
# Submitted via: dBpowerAMP V12.0
#
DISCID=5407b207
DTITLE=Hale Dwoskin - The Inner Circle Retreat 02 CD 02
DYEAR=2007
DGENRE=Speech
TTITLE0=Expansion and Contraction - Wanting to Exist
TTITLE1=Contraction - Wanting to Know
TTITLE2=Wanting to Figure It Out
TTITLE3=How to Take It Home
TTITLE4=Assignments - Write Your Intentions
TTITLE5=Looking for Awareness
TTITLE6=Assignments
EXTD=
EXTT0=
EXTT1=
EXTT2=
EXTT3=
EXTT4=
EXTT5=
EXTT6=
PLAYORDER=
